<?xml version="1.0" encoding="UTF-8" standalone="no"?>
<!-- Created with Inkscape (http://www.inkscape.org/) -->

<svg
   width="45.761189mm"
   height="24.839861mm"
   viewBox="0 0 45.761189 24.839861"
   version="1.1"
   id="svg5"
   xmlns="http://www.w3.org/2000/svg"
   xmlns:svg="http://www.w3.org/2000/svg">
  <defs
     id="defs2">
    <rect
       x="169.23174"
       y="288.30182"
       width="353.69095"
       height="347.47815"
       id="rect1706" />
    <rect
       x="169.23174"
       y="288.30182"
       width="353.69095"
       height="347.47815"
       id="rect1706-4" />
    <rect
       x="169.23174"
       y="288.30182"
       width="353.69095"
       height="347.47815"
       id="rect1706-4-0" />
    <rect
       x="169.23174"
       y="288.30182"
       width="353.69095"
       height="347.47815"
       id="rect1706-0" />
  </defs>
  <g
     id="layer1"
     transform="translate(-39.261241,-78.694485)">
    <g
       aria-label="A"
       transform="matrix(0.05127391,0,0,0.26458333,37.178922,-0.75535805)"
       id="text1704-6"
       style="font-size:40px;line-height:1.25;white-space:pre;shape-inside:url(#rect1706-0);fill:#43dc8a;fill-opacity:1;stroke-width:1.88976" />
    <path
       style="fill:#0a3041;fill-opacity:1;stroke:none;stroke-width:0.00679134;stroke-miterlimit:4;stroke-dasharray:none;stroke-opacity:1;paint-order:stroke fill markers"
       d=""
       id="path105669"
       transform="scale(0.26458333)" />
    <path
       style="fill:#0a3041;fill-opacity:1;stroke:none;stroke-width:0.00679134;stroke-miterlimit:4;stroke-dasharray:none;stroke-opacity:1;paint-order:stroke fill markers"
       d=""
       id="path105973"
       transform="scale(0.26458333)" />
    <path
       style="fill:#0a3041;fill-opacity:1;stroke:none;stroke-width:0.00679134;stroke-miterlimit:4;stroke-dasharray:none;stroke-opacity:1;paint-order:stroke fill markers"
       d=""
       id="path106086"
       transform="scale(0.26458333)" />
    <path
       style="fill:#0a3041;fill-opacity:1;stroke:none;stroke-width:0.00679134;stroke-miterlimit:4;stroke-dasharray:none;stroke-opacity:1;paint-order:stroke fill markers"
       d=""
       id="path106495"
       transform="scale(0.26458333)" />
    <path
       style="fill:#0a3041;fill-opacity:1;stroke:none;stroke-width:0.00679134;stroke-miterlimit:4;stroke-dasharray:none;stroke-opacity:1;paint-order:stroke fill markers"
       d=""
       id="path106756"
       transform="scale(0.26458333)" />
    <text
       xml:space="preserve"
       style="font-size:10.5833px;line-height:1.25;font-family:GalanoGrotesque-Regular;-inkscape-font-specification:GalanoGrotesque-Regular;stroke-width:0.264583"
       x="70.02681"
       y="76.624298"
       id="text24919"><tspan
         id="tspan24917"
         style="stroke-width:0.264583"
         x="70.02681"
         y="76.624298"></tspan></text>
    <text
       xml:space="preserve"
       style="font-size:10.5833px;line-height:1.25;font-family:GalanoGrotesque-Regular;-inkscape-font-specification:GalanoGrotesque-Regular;stroke-width:0.264583"
       x="54.105427"
       y="83.377792"
       id="text30973"><tspan
         id="tspan30971"
         style="stroke-width:0.264583"
         x="54.105427"
         y="83.377792"></tspan></text>
    <text
       xml:space="preserve"
       style="font-size:10.5833px;line-height:1.25;font-family:GalanoGrotesque-Regular;-inkscape-font-specification:GalanoGrotesque-Regular;stroke-width:0.264583"
       x="67.561958"
       y="79.791771"
       id="text45173"><tspan
         id="tspan45171"
         style="stroke-width:0.264583"
         x="67.561958"
         y="79.791771"></tspan></text>
    <g
       id="g108566">
      <g
         id="g104345"
         transform="translate(-5.3906821)">
        <path
           id="rect109066"
           style="fill:#0a3041;stroke-width:0.445794;stroke-linejoin:round;paint-order:stroke fill markers"
           d="m 48.37676,80.565796 h 0.275672 c 0.77373,0 1.396624,0.622894 1.396624,1.396623 v 0.512698 c 0,0.773729 -0.622894,1.396623 -1.396624,1.396623 H 48.37676 c -0.773729,0 -1.396623,-0.622894 -1.396623,-1.396623 v -0.512698 c 0,-0.773729 0.622894,-1.396623 1.396623,-1.396623 z" />
        <g
           aria-label="A"
           transform="scale(0.26458333)"
           id="text1704"
           style="font-size:40px;line-height:1.25;white-space:pre;shape-inside:url(#rect1706);stroke:#0a3041;stroke-width:1.73858;stroke-linejoin:round;stroke-miterlimit:4;stroke-dasharray:none">
          <path
             d="m 196.55242,325.09727 -12,-26.8 h -2.92 l -12,26.8 h 3.4 l 3,-6.8 h 14.12 l 3,6.8 z m -7.64,-9.64 h -11.64 l 5.84,-13.24 z"
             style="font-family:GalanoGrotesque-Regular;-inkscape-font-specification:GalanoGrotesque-Regular;fill:#43dc8a;stroke-width:1.73858;stroke-linecap:butt;stroke-linejoin:round;stroke-miterlimit:4;stroke-dasharray:none;paint-order:stroke fill markers"
             id="path97190" />
        </g>
        <path
           id="rect97233"
           style="fill:#43dc8a;stroke-width:0.692686;stroke-linejoin:round;paint-order:stroke fill markers"
           d="m 47.941528,79.750755 h 1.020557 v 0.895827 h -1.020557 z" />
        <path
           style="fill:#0a3041;fill-opacity:1;stroke:none;stroke-width:0.00679134;stroke-linejoin:round;stroke-miterlimit:4;stroke-dasharray:none;stroke-opacity:1;paint-order:stroke fill markers"
           d="m 182.8291,305.87402 c 0.14448,-5.6e-4 0.38091,-5.6e-4 0.52539,0 0.14448,5.7e-4 0.0263,0.001 -0.26269,0.001 -0.28897,0 -0.40718,-4.7e-4 -0.2627,-0.001 z"
           id="path107099"
           transform="scale(0.26458333)" />
        <path
           id="text1704-5"
           style="font-style:normal;font-weight:normal;font-size:40px;line-height:1.25;font-family:sans-serif;white-space:pre;shape-inside:url(#rect1706-4);fill:#43dc8a;fill-opacity:1;stroke:none;stroke-width:0.0949087;stroke-linejoin:round"
           d="m 48.305001,80.95 -0.608775,1.359606 h 0.313688 l 0.435654,-0.987536 0.432552,0.987536 h 0.312656 L 48.581999,80.95 Z M 47.575814,82.578841 47.166,83.493514 h 0.322995 l 0.284749,-0.644922 h 1.340029 l 0.284751,0.644922 H 49.721 l -0.409814,-0.914673 h -0.226869 -0.08837 -1.104893 -0.146769 z" />
      </g>
      <g
         aria-label="wesome"
         id="text53596"
         style="font-size:7.40833px;line-height:1.25;font-family:GalanoGrotesque-Regular;-inkscape-font-specification:GalanoGrotesque-Regular;fill:#43dc8a;stroke:#0a3041;stroke-width:0.23;stroke-linejoin:round">
        <path
           d="m 52.389103,82.381705 h -0.570442 l -0.940857,2.829982 -0.9779,-2.829982 h -0.451908 l -0.9779,2.829982 -0.940858,-2.829982 h -0.570441 l 1.229783,3.667124 h 0.525991 l 0.963083,-2.770716 0.955675,2.770716 h 0.525991 z"
           id="path108385" />
        <path
           d="m 56.500718,84.115254 c -0.02222,-0.533399 -0.200025,-0.970491 -0.540809,-1.311274 -0.340783,-0.340783 -0.755649,-0.511175 -1.252007,-0.511175 -0.518583,0 -0.963083,0.185208 -1.3335,0.540808 -0.370416,0.3556 -0.555624,0.822325 -0.555624,1.385358 0,0.563033 0.177799,1.02235 0.548216,1.377949 0.363008,0.3556 0.8001,0.5334 1.303866,0.5334 0.414867,0 0.770466,-0.09631 1.074208,-0.296333 0.303741,-0.200025 0.525991,-0.48895 0.674158,-0.866775 l -0.503767,-0.118533 c -0.237066,0.525991 -0.651933,0.785283 -1.244599,0.785283 -0.333375,0 -0.629708,-0.118533 -0.881591,-0.3556 -0.259292,-0.237066 -0.40005,-0.555625 -0.422275,-0.955674 h 3.133724 z m -1.792816,-1.326091 c 0.31115,0 0.577849,0.103717 0.807508,0.296334 0.22225,0.192616 0.363008,0.466724 0.414866,0.814916 h -2.541057 c 0.05186,-0.340783 0.207433,-0.607483 0.459316,-0.807508 0.251884,-0.200025 0.540808,-0.303742 0.859367,-0.303742 z"
           id="path108387" />
        <path
           d="m 57.16006,85.048704 c 0.04445,0.348191 0.207433,0.614891 0.503766,0.8001 0.288925,0.192616 0.651933,0.281516 1.089025,0.281516 0.4445,0 0.8001,-0.09631 1.066799,-0.296333 0.2667,-0.192617 0.407459,-0.474133 0.407459,-0.829733 0,-0.496358 -0.318559,-0.814916 -0.940858,-0.955675 l -0.881592,-0.192616 c -0.192616,-0.04445 -0.333374,-0.103717 -0.422274,-0.1778 -0.0889,-0.07408 -0.13335,-0.185208 -0.13335,-0.325967 0,-0.1778 0.06667,-0.318558 0.214841,-0.429683 0.140759,-0.111125 0.340783,-0.170391 0.592667,-0.170391 0.2667,0 0.481541,0.06668 0.651933,0.185208 0.162983,0.125942 0.2667,0.288925 0.31115,0.48895 l 0.540808,-0.118534 c -0.07408,-0.303741 -0.237067,-0.548216 -0.496358,-0.733424 -0.2667,-0.185209 -0.592667,-0.281517 -0.992717,-0.281517 -0.422275,0 -0.755649,0.103717 -1.007533,0.303742 -0.251883,0.207433 -0.377824,0.474133 -0.377824,0.800099 0,0.48895 0.311149,0.8001 0.948266,0.93345 l 0.837141,0.185208 c 0.40005,0.0889 0.600075,0.2667 0.600075,0.525992 0,0.192616 -0.08149,0.340783 -0.244475,0.451908 -0.162983,0.118533 -0.370417,0.170391 -0.629708,0.170391 -0.296333,0 -0.548217,-0.05927 -0.740833,-0.192616 -0.200025,-0.125942 -0.31115,-0.31115 -0.333375,-0.548217 z"
           id="path108389" />
        <path
           d="m 62.827437,82.300214 c -0.548217,0 -1.014942,0.185208 -1.385358,0.540808 -0.370417,0.355599 -0.555625,0.814916 -0.555625,1.363132 0,0.555625 0.185208,1.014942 0.555625,1.37795 0.370416,0.363008 0.837141,0.540808 1.385358,0.540808 0.540808,0 1.000124,-0.1778 1.370541,-0.540808 0.370416,-0.363008 0.563033,-0.822325 0.563033,-1.37795 0,-0.548216 -0.192617,-1.007533 -0.563033,-1.363132 -0.370417,-0.3556 -0.829733,-0.540808 -1.370541,-0.540808 z m 0,3.32634 c -0.385234,0 -0.718608,-0.13335 -0.985308,-0.40005 -0.274109,-0.2667 -0.407459,-0.607483 -0.407459,-1.02235 0,-0.407458 0.13335,-0.740833 0.407459,-1.007533 0.2667,-0.266699 0.600074,-0.400049 0.985308,-0.400049 0.377824,0 0.703791,0.13335 0.970491,0.400049 0.2667,0.2667 0.407458,0.600075 0.407458,1.007533 0,0.414867 -0.140758,0.75565 -0.407458,1.02235 -0.2667,0.2667 -0.592667,0.40005 -0.970491,0.40005 z"
           id="path108391" />
        <path
           d="m 70.154273,82.292805 c -0.614891,0 -1.074208,0.251883 -1.377949,0.740833 -0.111125,-0.229658 -0.274108,-0.407458 -0.496358,-0.540808 -0.22225,-0.13335 -0.466725,-0.200025 -0.748242,-0.200025 -0.555624,0 -0.970491,0.214842 -1.244599,0.644525 v -0.555625 h -0.563033 v 3.652307 h 0.563033 v -1.866899 c 0,-0.422275 0.09631,-0.75565 0.296333,-0.992717 0.200025,-0.237066 0.474133,-0.363008 0.814916,-0.363008 0.2667,0 0.48895,0.0889 0.66675,0.2667 0.1778,0.1778 0.2667,0.407458 0.2667,0.688975 v 2.266949 h 0.563033 v -1.866899 c 0,-0.422275 0.09631,-0.75565 0.303742,-0.992717 0.200025,-0.237066 0.474133,-0.363008 0.814916,-0.363008 0.274108,0 0.496358,0.0889 0.674158,0.2667 0.1778,0.1778 0.2667,0.407458 0.2667,0.688975 v 2.266949 h 0.563033 v -2.363257 c 0,-0.407459 -0.13335,-0.740833 -0.392642,-0.992717 -0.259291,-0.251883 -0.585258,-0.385233 -0.970491,-0.385233 z"
           id="path108393" />
        <path
           d="m 76.080931,84.115254 c -0.02223,-0.533399 -0.200025,-0.970491 -0.540808,-1.311274 -0.340783,-0.340783 -0.75565,-0.511175 -1.252008,-0.511175 -0.518583,0 -0.963083,0.185208 -1.333499,0.540808 -0.370417,0.3556 -0.555625,0.822325 -0.555625,1.385358 0,0.563033 0.1778,1.02235 0.548216,1.377949 0.363009,0.3556 0.8001,0.5334 1.303867,0.5334 0.414866,0 0.770466,-0.09631 1.074207,-0.296333 0.303742,-0.200025 0.525992,-0.48895 0.674158,-0.866775 l -0.503766,-0.118533 c -0.237067,0.525991 -0.651933,0.785283 -1.244599,0.785283 -0.333375,0 -0.629708,-0.118533 -0.881592,-0.3556 -0.259291,-0.237066 -0.40005,-0.555625 -0.422275,-0.955674 h 3.133724 z m -1.792816,-1.326091 c 0.31115,0 0.57785,0.103717 0.807508,0.296334 0.22225,0.192616 0.363008,0.466724 0.414867,0.814916 h -2.541058 c 0.05186,-0.340783 0.207434,-0.607483 0.459317,-0.807508 0.251883,-0.200025 0.540808,-0.303742 0.859366,-0.303742 z"
           id="path108395" />
      </g>
      <g
         id="g104353"
         transform="translate(-5.3848995)">
        <path
           id="rect109066-3"
           style="fill:#0a3041;stroke-width:0.445794;stroke-linejoin:round;paint-order:stroke fill markers"
           d="m 48.370977,89.307291 h 0.275672 c 0.77373,0 1.396624,0.622894 1.396624,1.396623 v 0.512698 c 0,0.773729 -0.622894,1.396623 -1.396624,1.396623 h -0.275672 c -0.773729,0 -1.396623,-0.622894 -1.396623,-1.396623 v -0.512698 c 0,-0.773729 0.622894,-1.396623 1.396623,-1.396623 z" />
        <g
           aria-label="A"
           transform="matrix(0.26458333,0,0,0.26458333,-0.00578294,8.7414955)"
           id="text1704-67"
           style="font-size:40px;line-height:1.25;white-space:pre;shape-inside:url(#rect1706);stroke:#0a3041;stroke-width:1.73858;stroke-linejoin:round;stroke-miterlimit:4;stroke-dasharray:none">
          <path
             d="m 196.55242,325.09727 -12,-26.8 h -2.92 l -12,26.8 h 3.4 l 3,-6.8 h 14.12 l 3,6.8 z m -7.64,-9.64 h -11.64 l 5.84,-13.24 z"
             style="font-family:GalanoGrotesque-Regular;-inkscape-font-specification:GalanoGrotesque-Regular;fill:#43dc8a;stroke-width:1.73858;stroke-linecap:butt;stroke-linejoin:round;stroke-miterlimit:4;stroke-dasharray:none;paint-order:stroke fill markers"
             id="path97190-5" />
        </g>
        <path
           id="rect97233-3"
           style="fill:#43dc8a;stroke-width:0.692686;stroke-linejoin:round;paint-order:stroke fill markers"
           d="m 47.935745,88.49225 h 1.020557 v 0.895827 h -1.020557 z" />
        <path
           style="fill:#0a3041;fill-opacity:1;stroke:none;stroke-width:0.00179688;stroke-linejoin:round;stroke-miterlimit:4;stroke-dasharray:none;stroke-opacity:1;paint-order:stroke fill markers"
           d="m 48.367749,89.670662 c 0.03823,-1.48e-4 0.100782,-1.48e-4 0.139009,0 0.03823,1.51e-4 0.007,2.64e-4 -0.0695,2.64e-4 -0.07646,0 -0.107733,-1.24e-4 -0.06951,-2.64e-4 z"
           id="path107099-5" />
        <path
           id="text1704-5-6"
           style="font-style:normal;font-weight:normal;font-size:40px;line-height:1.25;font-family:sans-serif;white-space:pre;shape-inside:url(#rect1706-4);fill:#43dc8a;fill-opacity:1;stroke:none;stroke-width:0.0949087;stroke-linejoin:round"
           d="m 48.299218,89.691495 -0.608775,1.359606 h 0.313688 l 0.435654,-0.987536 0.432552,0.987536 h 0.312656 l -0.608777,-1.359606 z m -0.729187,1.628841 -0.409814,0.914673 h 0.322995 l 0.284749,-0.644922 h 1.340029 l 0.284751,0.644922 h 0.322476 l -0.409814,-0.914673 h -0.226869 -0.08837 -1.104893 -0.146769 z" />
      </g>
      <g
         aria-label="ndroid"
         id="text53596-2"
         style="font-size:7.40833px;line-height:1.25;font-family:GalanoGrotesque-Regular;-inkscape-font-specification:GalanoGrotesque-Regular;fill:#43dc8a;stroke:#0a3041;stroke-width:0.23;stroke-linejoin:round">
        <path
           d="m 49.428948,91.034298 c -0.607483,0 -1.066799,0.237067 -1.377949,0.696383 v -0.607483 h -0.563033 v 3.652307 h 0.563033 v -1.755774 c 0,-0.459317 0.111125,-0.822325 0.340783,-1.081616 0.22225,-0.251884 0.5334,-0.385233 0.926041,-0.385233 0.296334,0 0.540808,0.111124 0.733425,0.318558 0.185208,0.207433 0.281517,0.481541 0.281517,0.822324 v 2.081741 h 0.563033 v -2.185457 c 0,-0.459317 -0.140759,-0.837142 -0.407458,-1.126066 -0.2667,-0.281517 -0.6223,-0.429684 -1.059392,-0.429684 z"
           id="path108398" />
        <path
           d="m 55.614908,89.441507 h -0.563033 v 2.266949 c -0.340783,-0.444499 -0.829733,-0.674158 -1.452033,-0.674158 -0.503766,0 -0.93345,0.185209 -1.289049,0.540809 -0.3556,0.355599 -0.5334,0.814916 -0.5334,1.377949 0,0.563033 0.1778,1.029758 0.5334,1.385358 0.355599,0.355599 0.785283,0.533399 1.289049,0.533399 0.6223,0 1.11125,-0.22225 1.452033,-0.674158 v 0.57785 h 0.563033 z m -1.926166,4.92654 c -0.385233,0 -0.7112,-0.125942 -0.970491,-0.385233 -0.2667,-0.259292 -0.392642,-0.600075 -0.392642,-1.029758 0,-0.422275 0.125942,-0.763058 0.385233,-1.029758 0.259292,-0.259292 0.585258,-0.392641 0.9779,-0.392641 0.3556,0 0.674158,0.133349 0.948266,0.400049 0.274108,0.2667 0.414867,0.607483 0.414867,1.02235 0,0.414866 -0.140759,0.75565 -0.414867,1.022349 -0.274108,0.2667 -0.592666,0.392642 -0.948266,0.392642 z"
           id="path108400" />
        <path
           d="m 58.956066,91.086157 c -0.637117,0 -1.126066,0.31115 -1.46685,0.933449 v -0.896408 h -0.570441 v 3.652307 h 0.570441 v -1.407583 c 0,-0.511174 0.125942,-0.926041 0.377825,-1.244599 0.251883,-0.31115 0.614892,-0.474133 1.089025,-0.474133 0.09631,0 0.170391,0.0074 0.214841,0.0074 l 0.04445,-0.540808 c -0.07408,-0.01482 -0.155575,-0.02963 -0.259291,-0.02963 z"
           id="path108402" />
        <path
           d="m 61.482308,91.041707 c -0.548217,0 -1.014942,0.185208 -1.385358,0.540808 -0.370417,0.3556 -0.555625,0.814916 -0.555625,1.363133 0,0.555624 0.185208,1.014941 0.555625,1.377949 0.370416,0.363008 0.837141,0.540808 1.385358,0.540808 0.540808,0 1.000124,-0.1778 1.370541,-0.540808 0.370416,-0.363008 0.563033,-0.822325 0.563033,-1.377949 0,-0.548217 -0.192617,-1.007533 -0.563033,-1.363133 -0.370417,-0.3556 -0.829733,-0.540808 -1.370541,-0.540808 z m 0,3.32634 c -0.385234,0 -0.718608,-0.13335 -0.985308,-0.40005 -0.274109,-0.2667 -0.407459,-0.607483 -0.407459,-1.022349 0,-0.407459 0.13335,-0.740833 0.407459,-1.007533 0.2667,-0.2667 0.600074,-0.40005 0.985308,-0.40005 0.377824,0 0.703791,0.13335 0.970491,0.40005 0.2667,0.2667 0.407458,0.600074 0.407458,1.007533 0,0.414866 -0.140758,0.755649 -0.407458,1.022349 -0.2667,0.2667 -0.592667,0.40005 -0.970491,0.40005 z"
           id="path108404" />
        <path
           d="m 64.719746,89.641532 c -0.111125,0 -0.200025,0.03704 -0.274108,0.111125 -0.07408,0.07408 -0.111125,0.162984 -0.111125,0.2667 0,0.111125 0.03704,0.200025 0.111125,0.274108 0.07408,0.07408 0.162983,0.103717 0.274108,0.103717 0.111125,0 0.207433,-0.02963 0.281517,-0.103717 0.07408,-0.07408 0.111125,-0.162983 0.111125,-0.274108 0,-0.103716 -0.04445,-0.192616 -0.118534,-0.2667 -0.07408,-0.07408 -0.170391,-0.111125 -0.274108,-0.111125 z m 0.288925,5.133973 v -3.652307 h -0.570442 v 3.652307 z"
           id="path108406" />
        <path
           d="m 69.875937,89.441507 h -0.563033 v 2.266949 c -0.340783,-0.444499 -0.829733,-0.674158 -1.452033,-0.674158 -0.503766,0 -0.933449,0.185209 -1.289049,0.540809 -0.3556,0.355599 -0.5334,0.814916 -0.5334,1.377949 0,0.563033 0.1778,1.029758 0.5334,1.385358 0.3556,0.355599 0.785283,0.533399 1.289049,0.533399 0.6223,0 1.11125,-0.22225 1.452033,-0.674158 v 0.57785 h 0.563033 z m -1.926166,4.92654 c -0.385233,0 -0.711199,-0.125942 -0.970491,-0.385233 -0.2667,-0.259292 -0.392642,-0.600075 -0.392642,-1.029758 0,-0.422275 0.125942,-0.763058 0.385234,-1.029758 0.259291,-0.259292 0.585258,-0.392641 0.977899,-0.392641 0.3556,0 0.674158,0.133349 0.948266,0.400049 0.274109,0.2667 0.414867,0.607483 0.414867,1.02235 0,0.414866 -0.140758,0.75565 -0.414867,1.022349 -0.274108,0.2667 -0.592666,0.392642 -0.948266,0.392642 z"
           id="path108408" />
      </g>
      <g
         id="g104361"
         transform="translate(-3.9662765)">
        <path
           id="rect109066-1"
           style="fill:#0a3041;stroke-width:0.445794;stroke-linejoin:round;paint-order:stroke fill markers"
           d="m 46.952354,97.854825 h 0.275672 c 0.77373,0 1.396624,0.622894 1.396624,1.396623 v 0.512698 c 0,0.773734 -0.622894,1.396624 -1.396624,1.396624 h -0.275672 c -0.773729,0 -1.396623,-0.62289 -1.396623,-1.396624 v -0.512698 c 0,-0.773729 0.622894,-1.396623 1.396623,-1.396623 z" />
        <g
           aria-label="A"
           transform="matrix(0.26458333,0,0,0.26458333,-1.424406,17.289029)"
           id="text1704-2"
           style="font-size:40px;line-height:1.25;white-space:pre;shape-inside:url(#rect1706);stroke:#0a3041;stroke-width:1.73858;stroke-linejoin:round;stroke-miterlimit:4;stroke-dasharray:none">
          <path
             d="m 196.55242,325.09727 -12,-26.8 h -2.92 l -12,26.8 h 3.4 l 3,-6.8 h 14.12 l 3,6.8 z m -7.64,-9.64 h -11.64 l 5.84,-13.24 z"
             style="font-family:GalanoGrotesque-Regular;-inkscape-font-specification:GalanoGrotesque-Regular;fill:#43dc8a;stroke-width:1.73858;stroke-linecap:butt;stroke-linejoin:round;stroke-miterlimit:4;stroke-dasharray:none;paint-order:stroke fill markers"
             id="path97190-7" />
        </g>
        <path
           id="rect97233-0"
           style="fill:#43dc8a;stroke-width:0.692686;stroke-linejoin:round;paint-order:stroke fill markers"
           d="m 46.517122,97.039784 h 1.020557 v 0.895827 h -1.020557 z" />
        <path
           style="fill:#0a3041;fill-opacity:1;stroke:none;stroke-width:0.00179688;stroke-linejoin:round;stroke-miterlimit:4;stroke-dasharray:none;stroke-opacity:1;paint-order:stroke fill markers"
           d="m 46.949126,98.218196 c 0.03823,-1.48e-4 0.100783,-1.48e-4 0.13901,0 0.03823,1.51e-4 0.007,2.64e-4 -0.0695,2.64e-4 -0.07646,0 -0.107733,-1.24e-4 -0.06951,-2.64e-4 z"
           id="path107099-9" />
        <path
           id="text1704-5-3"
           style="font-style:normal;font-weight:normal;font-size:40px;line-height:1.25;font-family:sans-serif;white-space:pre;shape-inside:url(#rect1706-4);fill:#43dc8a;fill-opacity:1;stroke:none;stroke-width:0.0949087;stroke-linejoin:round"
           d="m 46.880595,98.239029 -0.608775,1.359606 h 0.313688 l 0.435654,-0.987536 0.432552,0.987536 h 0.312656 l -0.608777,-1.359606 z m -0.729187,1.628841 -0.409814,0.91467 h 0.322995 l 0.284749,-0.64492 h 1.340029 l 0.284751,0.64492 h 0.322476 L 47.88678,99.86787 h -0.226869 -0.08837 -1.104893 -0.146769 z" />
      </g>
      <g
         aria-label="lternatives"
         id="text53596-6"
         style="font-size:7.40833px;line-height:1.25;font-family:GalanoGrotesque-Regular;-inkscape-font-specification:GalanoGrotesque-Regular;fill:#43dc8a;stroke:#0a3041;stroke-width:0.23;stroke-linejoin:round">
        <path
           d="m 48.050999,103.32304 v -5.334001 h -0.563033 v 5.334001 z"
           id="path108411" />
        <path
           d="m 51.362528,102.66369 c -0.207433,0.14817 -0.414866,0.22225 -0.622299,0.22225 -0.207434,0 -0.377825,-0.0593 -0.496358,-0.19261 -0.118534,-0.13335 -0.1778,-0.31115 -0.1778,-0.54822 v -2.00025 h 1.303866 v -0.47413 h -1.303866 v -1.163108 h -0.570442 v 1.163108 h -0.792691 v 0.47413 h 0.792691 v 2.03729 c 0,0.40005 0.103717,0.70379 0.325967,0.91864 0.214841,0.21484 0.511175,0.31855 0.881591,0.31855 0.281517,0 0.563033,-0.0963 0.84455,-0.28892 z"
           id="path108413" />
        <path
           d="m 55.511191,101.40428 c -0.02222,-0.5334 -0.200025,-0.97049 -0.540808,-1.31128 -0.340783,-0.340779 -0.755649,-0.51117 -1.252008,-0.51117 -0.518583,0 -0.963082,0.185208 -1.333499,0.54081 -0.370416,0.3556 -0.555625,0.82232 -0.555625,1.38536 0,0.56303 0.1778,1.02234 0.548217,1.37794 0.363008,0.3556 0.800099,0.5334 1.303866,0.5334 0.414866,0 0.770466,-0.0963 1.074208,-0.29633 0.303741,-0.20002 0.525991,-0.48895 0.674158,-0.86677 l -0.503767,-0.11854 c -0.237066,0.52599 -0.651933,0.78529 -1.244599,0.78529 -0.333375,0 -0.629708,-0.11854 -0.881592,-0.3556 -0.259291,-0.23707 -0.400049,-0.55563 -0.422274,-0.95568 h 3.133723 z m -1.792816,-1.32609 c 0.31115,0 0.57785,0.10371 0.807508,0.29633 0.22225,0.19262 0.363009,0.46673 0.414867,0.81492 h -2.541057 c 0.05186,-0.34079 0.207433,-0.60749 0.459316,-0.80751 0.251883,-0.20003 0.540808,-0.30374 0.859366,-0.30374 z"
           id="path108415" />
        <path
           d="m 58.518975,99.633688 c -0.637117,0 -1.126066,0.31115 -1.46685,0.933452 v -0.89641 h -0.570441 v 3.65231 h 0.570441 v -1.40759 c 0,-0.51117 0.125942,-0.92604 0.377825,-1.2446 0.251884,-0.31115 0.614892,-0.47413 1.089025,-0.47413 0.09631,0 0.170391,0.007 0.214841,0.007 l 0.04445,-0.540809 c -0.07408,-0.01482 -0.155575,-0.02963 -0.259291,-0.02963 z"
           id="path108417" />
        <path
           d="m 61.474903,99.58183 c -0.607483,0 -1.066799,0.237066 -1.377949,0.69638 v -0.60748 h -0.563033 v 3.65231 h 0.563033 v -1.75578 c 0,-0.45931 0.111125,-0.82232 0.340783,-1.08161 0.22225,-0.25189 0.5334,-0.38524 0.926041,-0.38524 0.296333,0 0.540808,0.11113 0.733425,0.31856 0.185208,0.20743 0.281516,0.48154 0.281516,0.82233 v 2.08174 h 0.563033 v -2.18546 c 0,-0.45932 -0.140758,-0.83714 -0.407458,-1.12607 -0.2667,-0.281514 -0.622299,-0.42968 -1.059391,-0.42968 z"
           id="path108419" />
        <path
           d="m 67.623821,99.67073 h -0.563033 v 0.58526 c -0.340783,-0.444502 -0.829733,-0.67416 -1.452033,-0.67416 -0.503766,0 -0.93345,0.185208 -1.289049,0.54081 -0.3556,0.3556 -0.5334,0.81491 -0.5334,1.37795 0,0.56303 0.1778,1.02975 0.5334,1.38535 0.355599,0.3556 0.785283,0.5334 1.289049,0.5334 0.6223,0 1.11125,-0.22225 1.452033,-0.67415 v 0.57785 h 0.563033 z m -1.926166,3.24485 c -0.385233,0 -0.7112,-0.12594 -0.970491,-0.38524 -0.2667,-0.25929 -0.392642,-0.60007 -0.392642,-1.02975 0,-0.42228 0.125942,-0.76306 0.392642,-1.02976 0.259291,-0.25929 0.585258,-0.39264 0.970491,-0.39264 0.3556,0 0.674158,0.13335 0.948266,0.40005 0.274108,0.2667 0.414867,0.60748 0.414867,1.02235 0,0.41486 -0.140759,0.75565 -0.414867,1.02235 -0.274108,0.2667 -0.592666,0.39264 -0.948266,0.39264 z"
           id="path108421" />
        <path
           d="m 70.935338,102.66369 c -0.207433,0.14817 -0.414867,0.22225 -0.6223,0.22225 -0.207433,0 -0.377825,-0.0593 -0.496358,-0.19261 -0.118533,-0.13335 -0.1778,-0.31115 -0.1778,-0.54822 v -2.00025 h 1.303866 V 99.67073 H 69.63888 v -1.163108 h -0.570441 v 1.163108 h -0.792692 v 0.47413 h 0.792692 v 2.03729 c 0,0.40005 0.103716,0.70379 0.325966,0.91864 0.214842,0.21484 0.511175,0.31855 0.881591,0.31855 0.281517,0 0.563033,-0.0963 0.84455,-0.28892 z"
           id="path108423" />
        <path
           d="m 72.187338,98.189064 c -0.111125,0 -0.200025,0.03704 -0.274108,0.111124 -0.07408,0.07408 -0.111125,0.162984 -0.111125,0.2667 0,0.111125 0.03704,0.200025 0.111125,0.274109 0.07408,0.07408 0.162983,0.103716 0.274108,0.103716 0.111125,0 0.207433,-0.02963 0.281517,-0.103716 0.07408,-0.07408 0.111125,-0.162984 0.111125,-0.274109 0,-0.103716 -0.04445,-0.192616 -0.118534,-0.2667 -0.07408,-0.07408 -0.170391,-0.111124 -0.274108,-0.111124 z m 0.288925,5.133976 v -3.65231 h -0.570441 v 3.65231 z"
           id="path108425" />
        <path
           d="m 77.165729,99.67073 h -0.614891 l -1.303866,2.98556 -1.311275,-2.98556 h -0.614891 l 1.615016,3.65231 h 0.614891 z"
           id="path108427" />
        <path
           d="m 81.181042,101.40428 c -0.02223,-0.5334 -0.200025,-0.97049 -0.540808,-1.31128 -0.340783,-0.340779 -0.75565,-0.51117 -1.252008,-0.51117 -0.518583,0 -0.963083,0.185208 -1.333499,0.54081 -0.370417,0.3556 -0.555625,0.82232 -0.555625,1.38536 0,0.56303 0.1778,1.02234 0.548217,1.37794 0.363008,0.3556 0.800099,0.5334 1.303866,0.5334 0.414866,0 0.770466,-0.0963 1.074207,-0.29633 0.303742,-0.20002 0.525992,-0.48895 0.674158,-0.86677 l -0.503766,-0.11854 c -0.237067,0.52599 -0.651933,0.78529 -1.244599,0.78529 -0.333375,0 -0.629708,-0.11854 -0.881592,-0.3556 -0.259291,-0.23707 -0.40005,-0.55563 -0.422274,-0.95568 h 3.133723 z m -1.792816,-1.32609 c 0.31115,0 0.57785,0.10371 0.807508,0.29633 0.22225,0.19262 0.363008,0.46673 0.414867,0.81492 h -2.541058 c 0.05186,-0.34079 0.207434,-0.60749 0.459317,-0.80751 0.251883,-0.20003 0.540808,-0.30374 0.859366,-0.30374 z"
           id="path108429" />
        <path
           d="m 81.840383,102.33773 c 0.04445,0.34819 0.207433,0.61489 0.503766,0.8001 0.288925,0.19261 0.651933,0.28151 1.089025,0.28151 0.444499,0 0.800099,-0.0963 1.066799,-0.29633 0.2667,-0.19262 0.407458,-0.47413 0.407458,-0.82973 0,-0.49636 -0.318558,-0.81492 -0.940858,-0.95568 l -0.881591,-0.19261 c -0.192617,-0.0445 -0.333375,-0.10372 -0.422275,-0.1778 -0.0889,-0.0741 -0.13335,-0.18521 -0.13335,-0.32597 0,-0.1778 0.06667,-0.31856 0.214842,-0.42968 0.140758,-0.11113 0.340783,-0.17039 0.592666,-0.17039 0.2667,0 0.481542,0.0667 0.651933,0.1852 0.162984,0.12595 0.2667,0.28893 0.31115,0.48895 l 0.540808,-0.11853 c -0.07408,-0.30374 -0.237066,-0.54822 -0.496358,-0.733424 -0.2667,-0.185208 -0.592666,-0.281516 -0.992716,-0.281516 -0.422275,0 -0.75565,0.103716 -1.007533,0.303741 -0.251883,0.207429 -0.377825,0.474129 -0.377825,0.800099 0,0.48895 0.31115,0.8001 0.948266,0.93345 l 0.837142,0.18521 c 0.40005,0.0889 0.600074,0.2667 0.600074,0.52599 0,0.19262 -0.08149,0.34078 -0.244474,0.45191 -0.162984,0.11853 -0.370417,0.17039 -0.629708,0.17039 -0.296334,0 -0.548217,-0.0593 -0.740833,-0.19262 -0.200025,-0.12594 -0.31115,-0.31115 -0.333375,-0.54821 z"
           id="path108431" />
      </g>
    </g>
  </g>
</svg>
